<svg version="1.1"
  xmlns="http://www.w3.org/2000/svg"
  xmlns:xlink="http://www.w3.org/1999/xlink"
  xmlns:a="http://ns.adobe.com/AdobeSVGViewerExtensions/3.0/" x="0px" y="0px" width="78.4px" height="78.4px" viewBox="0 0 78.4 78.4" style="enable-background:new 0 0 78.4 78.4;" xml:space="preserve">
  <style type="text/css">
	.st0{fill:#24282A;}
  </style>
  <defs>
  </defs>
  <g>
    <path class="st0" d="M40,31.6c-1.5,0-2.8,0.4-4,1.3c-1.2,0.9-2.3,2-3.2,3.3v14.3c0.8,1.2,1.7,2.1,2.9,2.7c1.1,0.7,2.4,1,3.7,1
		c2.4,0,4.3-1,5.6-2.9c1.3-1.9,1.9-4.7,1.9-8.5c0-3.7-0.6-6.6-1.7-8.5C44,32.6,42.3,31.6,40,31.6z"/>
    <path class="st0" d="M66.4,0H12C5.4,0,0,5.4,0,12v54.4c0,6.6,5.4,12,12,12h54.4c6.6,0,12-5.4,12-12V12C78.4,5.4,73,0,66.4,0z
		 M20.9,50.8L7.8,42.6v-4.8L20.6,30l2.5,3.4l-11.3,6.9l11.6,7.2L20.9,50.8z M48.9,53.9c-2,2.8-4.8,4.1-8.5,4.1c-3.3,0-6-1.2-7.9-3.6
		l-0.3,3h-4.1V16.9l4.6-0.5v16c2.2-2.9,5-4.4,8.3-4.4c3.7,0,6.4,1.3,8.2,4c1.8,2.6,2.6,6.3,2.6,11.1C51.9,47.5,50.9,51.1,48.9,53.9z
		 M70.5,42.6l-13.1,8.2L55,47.5l11.6-7.2l-11.3-6.9l2.5-3.4l12.7,7.9V42.6z"/>
  </g>
</svg>
